<svg width="100" height="50" xmlns="http://www.w3.org/2000/svg">
 <!-- Created with Method Draw - http://github.com/duopixel/Method-Draw/ -->
 <defs>
  <linearGradient spreadMethod="pad" y2="0.019531" x2="0.046875" y1="0.019531" x1="0.984375" id="svg_9">
   <stop offset="0.132813" stop-color="#f70707"/>
   <stop offset="1" stop-color="#08f8f8"/>
  </linearGradient>
 </defs>
 <g>
  <title>Layer 1</title>
  <text stroke="#000" font-weight="bold" font-style="italic" xml:space="preserve" text-anchor="start" font-family="'Courier New', Courier, monospace" font-size="48" id="svg_1" y="85" x="65.5" stroke-width="0" fill="#080a0a">CRTL</text>
  <path stroke="#000" id="svg_2" d="m61.618907,86.361969c-2.231139,-2.192751 -5.700657,-2.442803 -6.534934,-5.563898c-0.653907,-1.697622 -6.818428,-3.974469 -3.169969,-0.92747c2.817257,1.836096 6.164332,8.608488 -0.766715,6.468744c-5.27158,-1.390154 -5.497629,-5.682819 -6.910663,-8.896587c-4.595089,-2.290775 1.188027,-7.134451 -3.759577,-10.069539c-4.199114,-3.063881 -1.274695,-8.802078 -7.274878,-10.974538c-3.011693,-0.878322 -4.315294,5.18609 -4.822381,0.749576c-1.649976,-4.487088 -7.477254,2.181214 -11.363045,1.474269c-3.135611,-0.195868 5.245064,-1.762224 1.245762,-2.183745c-2.351284,0.924884 -4.52679,2.524066 -4.898781,-0.123053c-2.828454,-1.207049 -8.759783,-3.134657 -8.605705,-5.052169c2.456223,-0.554432 10.748154,1.049846 9.311195,-1.179256c-2.465734,-0.672388 -2.913647,-2.510404 0.106391,-1.276853c5.951651,0.134154 12.928679,-1.572929 17.880831,1.692056c2.58306,1.14203 5.122815,5.237918 6.505654,1.257481c4.457622,-3.863227 13.452382,-4.190455 16.2003,-9.192365c0.664962,-2.419988 -2.042263,-3.800661 -4.342134,-4.290846c-0.447442,-0.795294 -1.209129,-4.171818 -3.110968,-2.467918c0.086683,-1.491316 1.870705,-5.057579 -2.080969,-3.478793c-0.400809,-3.176411 3.378186,-6.345422 -1.620916,-8.658523c4.683891,0.624344 3.760248,-3.212593 2.740053,-3.821117c2.77657,-0.283296 6.035005,-2.07864 4.504101,-4.302765c3.01528,3.933383 3.119833,-4.771922 5.602298,-1.019673c4.56899,0.538226 -1.419417,-2.933132 2.782933,-2.158313c2.399589,0.058998 1.86665,-1.889225 4.022305,-0.418835c2.852974,-1.118549 -2.187086,-4.498988 2.419344,-2.15022c1.548516,0.966647 6.478555,3.498437 5.593992,0.157516c4.377137,3.355046 7.821714,-3.116267 11.458945,-4.456413c1.442716,-1.240224 4.580026,-2.552766 1.686605,-0.185314c-1.920855,3.017771 -8.437672,6.28236 -6.684448,9.280953c-1.586944,1.038127 3.201898,2.342872 -0.61022,1.949852c-2.258408,1.751703 3.027791,5.029032 3.449656,7.785942c-1.210863,1.888973 -5.821544,4.033458 -7.68668,3.965679c0.681689,-2.432054 -0.796119,-5.601961 -5.112525,-4.227262c2.417965,3.179027 5.687019,6.216001 7.735198,9.673136c2.001947,3.398529 5.24776,7.323142 9.518077,2.949232c2.721778,-2.787746 10.497222,-2.747391 8.361372,1.77992c-1.091853,4.445687 1.831369,10.313098 -3.785536,13.375443c-3.388427,4.691657 -7.144953,-1.744459 -4.482856,-4.179298c-0.678329,-0.6958 -1.20309,-1.186969 0.781875,-2.138081c-0.409864,-0.713435 5.712396,-3.397563 2.626801,-5.044586c-3.509359,2.859415 -8.644364,6.1692 -7.217287,10.419682c1.158229,2.848336 -8.39429,7.73155 -7.630417,3.00447c0.171103,-1.837103 3.821346,-5.397614 2.981108,-5.856316c-2.665009,3.593034 -6.456113,7.044912 -12.184858,8.111688c-4.765191,0.202907 -7.261391,2.959811 -4.998492,6.018627c0.43246,4.334478 -2.751753,8.257396 -3.484836,12.477621c1.362713,4.476104 9.659289,5.380612 10.785427,9.94658c1.935053,3.066506 -2.905275,2.613325 -5.160444,1.755277l0.000012,0.000003zm-11.798432,-13.353663c-0.698478,-2.023335 -2.135892,5.259676 -0.364018,1.394149l0.265253,-0.682931l0.098765,-0.711221l0,0.000003z" stroke-width="1.5" fill="url(#svg_9)"/>
 </g>
</svg>