<svg width="24" height="24" xmlns="http://www.w3.org/2000/svg">
 <!-- Created with Method Draw - http://github.com/duopixel/Method-Draw/ -->
 <g>
  <title>Layer 1</title>
  <text stroke="#000" transform="matrix(1.0985230207443237,0,0,0.8031149855090418,-2.4142608766428566,9.694223835148536) " xml:space="preserve" text-anchor="start" font-family="Oswald, sans-serif" font-size="24" id="svg_17" y="11.139786" x="7.698926" stroke-opacity="null" stroke-width="0" fill="#04f404">C</text>
  <path d="m5.333338,5.548395c0,0 -1.144333,0.820831 -1.720428,6.021498c-0.42685,3.853362 0.430107,6.451605 1.720428,8.387087l3.010749,1.935482l2.365589,0.860214l0.215054,0" id="svg_6" stroke-opacity="null" stroke-width="0" stroke="#000" fill="none"/>
  <polyline stroke-linecap="round" id="svg_11" points="15.440852981736244,3.827966374917864 15.440852981736244,3.827966374917864 " fill-opacity="null" stroke-opacity="null" stroke-width="0" stroke="#000" fill="none"/>
  <path d="m6.623659,6.408608c0.215054,2.580643 1.720428,7.31182 5.161284,9.892463l4.086018,1.505373l2.795696,-0.215054" id="svg_12" fill-opacity="null" stroke-opacity="null" stroke-width="0" stroke="#000" fill="none"/>
  <polyline stroke-linecap="round" id="svg_14" points="24.042993639717423,13.935481648045775 24.042993639717423,13.935481648045775 " stroke-opacity="null" stroke-width="0" stroke="#000" fill="none"/>
  <text stroke="#000" transform="matrix(1.3244799848754758,0,0,0.9869920758255157,-3.6945833865846285,10.062740209431523) " xml:space="preserve" text-anchor="start" font-family="Oswald, sans-serif" font-size="24" id="svg_16" y="10.279572" x="4.688177" stroke-opacity="null" stroke-width="0" fill="#f70431">C</text>
  <text stroke="#000" transform="matrix(1.5601800407181678,0,0,1.1747309280640232,-4.420756561947749,10.65950438018413) " xml:space="preserve" text-anchor="start" font-family="Oswald, sans-serif" font-size="24" id="svg_15" y="9.849465" x="2.322588" stroke-opacity="null" stroke-width="0" fill="#0a0909">C</text>
 </g>
</svg>