<svg width="32" height="24" xmlns="http://www.w3.org/2000/svg">
 <!-- Created with Method Draw - http://github.com/duopixel/Method-Draw/ -->
 <g>
  <title>Layer 1</title>
  <text stroke="#000" transform="matrix(1.698334456383833,0,0,1.6285405158996582,-2.7938722148818074,-0.6481824070215225) " font-style="italic" font-weight="bold" xml:space="preserve" text-anchor="start" font-family="'Palatino Linotype', 'Book Antiqua', Palatino, serif" font-size="10" id="svg_20" y="11.569893" x="1.892481" fill-opacity="null" stroke-opacity="null" stroke-width="0" fill="#0a0909">Crtl</text>
  <path stroke="#000" id="svg_21" d="m17.779558,8.957717c0,0 -2.036455,-0.05984 -3.114958,-0.288605c-1.078503,-0.228767 -1.581801,-0.520445 -1.581801,-0.520445c0,0 0.565991,0.251585 1.360251,0.442208c0.484237,0.116215 1.053356,0.209774 1.630796,0.209774c0,0 -0.891519,-0.200166 -1.560245,-0.057197c0,0 0.481742,-0.131539 1.315783,-0.031453c0.83409,0.100083 1.251058,0.042886 1.251058,0.042886c0,0 -1.40919,-0.002858 -2.020374,-0.162996c-0.611191,-0.160138 -0.76219,-0.251628 -0.76219,-0.251628c0,0 0.632747,0.260222 1.121672,0.291678c0.488925,0.031457 1.330156,-0.005736 1.330156,-0.005736c0,0 -0.869971,0.008595 -1.143228,-0.040031c-0.273209,-0.0486 -1.351712,-0.145827 -1.545823,0.057197c0,0 0.215667,-0.214477 1.200706,-0.151563c0.98504,0.062913 1.07856,0.042908 1.07856,0.042908c0,0 -1.747229,-0.268818 -2.725078,-0.117251c-0.977856,0.151563 -0.913139,0.280245 -0.913139,0.280245c0,0 0.064725,-0.4461 2.451828,-0.366041c0,0 -1.114433,-0.065771 -1.524323,-0.197308c-0.409778,-0.13154 -0.438573,-0.217315 -0.438573,-0.217315c0,0 0.467319,0.283084 1.042574,0.285942c0.575205,0.002877 0.740577,-0.017146 0.740577,-0.017146c0,0 -1.121665,-0.102942 -1.653758,-0.080082c-0.532044,0.022885 -1.394824,0.097228 -1.847826,-0.228765c0,0 0.424207,0.311705 1.581857,0.203047c1.157594,-0.108677 1.883748,0.01143 1.883748,0.01143c0,0 -1.754362,-0.134398 -2.113894,-0.268793c-0.359482,-0.134398 -0.402594,-0.366044 -0.402594,-0.366044c0,0 0.150998,0.388903 0.891519,0.426099c0.740633,0.03717 1.862249,0.028576 2.157063,0.162993c0,0 -0.740577,-0.217335 -1.50995,-0.188736c-0.769316,0.028598 -1.955705,0.423217 -2.559657,0.320276c-0.603945,-0.102941 -0.877202,-0.017166 -0.877202,-0.017166c0,0 0.251701,-0.100083 0.683035,-0.054341c0.431446,0.045767 0.52491,0.114393 1.265487,-0.088631c0.740577,-0.203025 1.998825,-0.454672 2.796937,-0.237359c0,0 -3.729179,-0.410793 -4.131773,-1.245777c0,0 0.354534,0.556725 2.17606,0.804522c1.821582,0.247797 1.926966,0.228767 1.926966,0.228767c0,0 -2.808856,-0.118224 -4.122291,-1.124797c0,0 1.140775,0.781636 2.914402,0.884578c0,0 -1.495576,-0.20588 -2.655623,-0.834981c-1.159885,-0.629123 -1.208002,-0.838856 -1.208002,-0.838856c0,0 1.409401,1.006571 4.074604,1.185803c0,0 -2.08765,-0.237401 -3.583177,-0.995183c-1.49552,-0.757782 -1.028152,-0.906488 -1.028152,-0.906488c0,0 -0.323553,-0.271654 -0.079147,-0.331709c0,0 -0.481741,-0.217335 -0.345109,-0.394619c0,0 0.345109,0.671987 2.106711,1.112373c1.761595,0.440364 1.912593,0.494703 1.912593,0.494703c0,0 -1.826319,-0.497561 -2.401524,-0.737778c-0.575206,-0.240198 -1.222319,-0.426076 -1.596224,-0.940783c0,0 0.359539,0.508991 1.495577,0.857865c1.135988,0.348875 1.358944,0.343139 1.358944,0.343139c0,0 -2.329618,-0.474678 -2.88326,-1.261059c0,0 0.323553,0.580498 2.89045,1.135255c0,0 -2.57408,-0.603379 -2.89045,-1.24679c0,0 -0.057485,-0.094367 0.050345,-0.140112c0,0 -0.129443,-0.122968 -0.086274,-0.27739c0.043112,-0.154402 0.093464,-0.320254 0.093464,-0.320254c0,0 -0.11502,0.651983 1.481154,1.15526c0,0 -1.883805,-0.897958 -1.212634,-1.637599c0,0 -0.143921,0.407974 0.306685,0.594785c0,0 -0.38354,-0.327856 -0.201301,-0.71297c0,0 -0.048004,0.407977 0.43139,0.777808c0.479401,0.369832 2.013248,1.086631 2.013248,1.086631c0,0 -1.802262,-0.838834 -2.089892,-1.311607c-0.287575,-0.472773 -0.124706,-0.781597 -0.124706,-0.781597c0,0 -0.162869,0.44225 0.536936,0.884558c0.699805,0.442292 0.93953,0.491847 0.93953,0.491847c0,0 -1.927071,-0.796902 -1.19852,-1.681438c0,0 -0.047849,0.895988 0.747816,1.281083c0.795821,0.385112 1.035335,0.396544 1.035335,0.396544c0,0 -1.639336,-0.514729 -1.58185,-1.235338c0.057584,-0.720612 0.364479,-0.758735 0.364479,-0.758735c0,0 -0.6808,0.609987 0.412076,1.197193c1.092926,0.587206 0.872466,0.476604 0.872466,0.476604c0,0 -1.553006,-0.800669 -1.246216,-1.425981c0.306791,-0.625309 0.89152,-0.617667 0.89152,-0.617667c0,0 -0.642215,0.167737 -0.613476,0.552829c0.028747,0.385095 0.94911,1.132398 0.94911,1.132398c0,0 -1.02586,-1.025603 -0.747809,-1.342091c0.277946,-0.316466 0.862836,-0.411766 0.862836,-0.411766c0,0 -1.140992,0.259272 -0.479506,0.953207c0,0 -0.412174,-0.659562 0.690225,-0.968406c0,0 -0.786029,0.297414 -0.460129,0.850247c0,0 -0.09586,-0.678718 0.949054,-0.911274c0,0 -0.670904,0.209736 -0.68054,0.632951c0,0 0.143815,-0.427068 0.939432,-0.667266c0,0 -0.604001,0.366021 -0.565577,0.89218c0,0 0.450606,-0.518476 0.671172,-0.899779c0,0 0.03822,0.205902 -0.124706,0.461321c-0.162925,0.255458 -0.239619,0.27832 -0.239619,0.27832c0,0 0.584729,-0.343139 0.613524,-0.678656c0,0 0.028746,0.327918 -0.22046,0.60245c0,0 0.474664,-0.151793 0.53444,-0.488137c0.000935,-0.005012 0.001666,-0.010067 0.00239,-0.01516c0,0 0.13413,0.491803 -0.354794,0.907421c-0.488925,0.415638 -0.719021,0.453741 -0.719021,0.453741c0,0 1.083451,-0.407996 1.246377,-0.972259c0,0 0.019159,0.316424 -0.268415,0.590936c-0.287582,0.274529 -0.594422,0.484265 -0.594422,0.484265c0,0 1.447566,-0.52241 1.207946,-1.460293c0,0 0.277946,0.522306 0.028746,0.918851c-0.249206,0.396544 -1.476473,1.006573 -1.476473,1.006573c0,0 1.907912,-0.671076 1.994137,-1.734824c0,0 0.230096,0.629101 -0.647113,1.201004c0,0 1.294226,-0.583336 1.265487,-1.138094c0,0 0.287631,0.280226 0.043112,0.663416c-0.244413,0.383186 -1.40919,1.281083 -2.617192,1.498418c0,0 3.278678,-0.703466 3.063004,-1.910184c0,0 0.359483,0.549022 -0.086273,1.080917c-0.445763,0.531873 -2.14269,1.343993 -2.14269,1.343993c0,0 2.430264,-0.89218 2.789803,-1.864458c0,0 0.11502,-0.297372 -0.028796,-0.474679c0,0 0.589628,0.102941 0.63274,0.543328c0.043113,0.440364 -0.532036,1.035169 -0.934687,1.452651c-0.402651,0.417501 -1.265431,0.972259 -1.265431,0.972259c0,0 2.804119,-1.704301 2.401419,-2.539304c0,0 0.71907,0.360305 0.63274,0.829289c-0.086224,0.46896 -0.690225,1.772928 -2.37268,2.361998c0,0 1.811897,-0.571904 2.315195,-1.61279c0,0 0.258835,-0.554757 0.215674,-0.857888c0,0 0.359482,0.640553 0.230089,1.120968c-0.129393,0.480414 -1.481154,1.555615 -1.481154,1.555615c0,0 1.481154,-0.897916 1.581801,-1.45839c0,0 0.158188,0.337422 0.043168,0.646269c-0.11502,0.308824 -0.776506,0.886464 -1.337394,1.223886c0,0 1.179206,-0.674845 1.423668,-0.972259c0.24447,-0.297394 0.201301,-0.468962 0.201301,-0.468962c0,0 0.287631,0.926514 -0.172555,1.361162c-0.460185,0.434648 -1.912544,1.080917 -2.01319,1.384025c0,0 0.675852,-0.703444 2.142633,-0.812121c1.466781,-0.108658 2.300822,0.057196 2.300822,0.057196c0,0 -2.228915,-0.285961 -3.422494,0.251647c0,0 -0.603945,0.291678 -0.618367,0.554758c0,0 1.553111,-0.434648 1.797524,-1.029456c0.244512,-0.594786 1.380556,-0.686297 1.380556,-0.686297c0,0 -1.265487,0.188736 -1.251114,0.703466c0.014374,0.514726 -1.438041,1.120945 -1.78315,1.103799c0,0 1.179206,-0.13154 1.596223,-0.52616c0,0 -0.273258,0.400333 -0.86278,0.631959c-0.589628,0.231623 -0.395517,0.331706 -0.395517,0.331706c0,0 0.20135,-0.248769 0.790928,-0.457532c0.589628,-0.208741 1.366127,-0.569046 1.373317,-0.812121c0.007183,-0.243053 0.647113,-0.486128 0.647113,-0.486128c0,0 -0.503297,0.254505 -0.52491,0.437525c-0.021556,0.183001 0.050352,0.468963 -0.790872,0.70918c-0.84128,0.240197 -1.193579,0.671989 -1.179206,0.860723c0,0 0.587231,-0.673912 2.312903,-0.807337c0,0 -1.649027,0.129614 -2.233756,0.86932c0,0 1.09282,-0.739664 2.55007,-0.934117c0,0 -1.553055,0.26308 -2.300822,0.907444c0,0 0.440977,-0.457594 1.821428,-0.476624c0,0 -1.150411,0.060986 -1.620071,0.491845c0,0 0.210874,-0.182959 0.997016,-0.247797c0.786135,-0.064838 1.447516,-0.289795 1.284591,-0.503339c0,0 0.2013,0.297353 -0.824405,0.495656c-1.025812,0.198303 -1.456787,0.67314 -1.456787,0.67314c0,0 0.83532,0.314547 1.510688,0.579613c-0.053318,0.148437 -0.237441,0.189281 -0.408773,0.204988c-0.06126,0.005616 -1.491409,-0.634023 -1.572896,-0.646766z" stroke-opacity="null" stroke-width="0" fill="#f70909"/>
 </g>
</svg>